<?xml version="1.0" encoding="UTF-8" standalone="no"?>
<!DOCTYPE svg PUBLIC "-//W3C//DTD SVG 1.1//EN" "http://www.w3.org/Graphics/SVG/1.1/DTD/svg11.dtd">
<svg width="100%" height="100%" viewBox="0 0 55 55" version="1.1" xmlns="http://www.w3.org/2000/svg" xmlns:xlink="http://www.w3.org/1999/xlink" xml:space="preserve" style="fill-rule:evenodd;clip-rule:evenodd;stroke-linejoin:round;stroke-miterlimit:1.41421;">
    <g transform="matrix(0.989385,0,0,0.989385,-1797.89,-1294.19)">
        <g transform="matrix(0.824062,0,0,0.824062,306.838,268.953)">
            <path d="M1842.28,1309.59C1842.72,1309.6 1843.15,1309.63 1843.59,1309.7C1844.46,1309.83 1845.31,1310.09 1846.12,1310.46C1847.99,1311.34 1849.55,1312.85 1850.5,1314.69C1850.9,1315.47 1851.19,1316.31 1851.35,1317.18C1851.55,1318.19 1851.57,1319.24 1851.43,1320.26C1851.3,1321.21 1851.01,1322.14 1850.6,1323C1850.11,1324.02 1849.43,1324.94 1848.62,1325.72C1847.77,1326.53 1846.78,1327.17 1845.7,1327.61C1844.58,1328.07 1843.37,1328.31 1842.16,1328.31C1840.95,1328.31 1839.75,1328.07 1838.63,1327.61C1837.55,1327.17 1836.55,1326.53 1835.71,1325.72C1834.89,1324.94 1834.22,1324.02 1833.73,1323C1833.31,1322.14 1833.03,1321.21 1832.9,1320.26C1832.75,1319.24 1832.78,1318.19 1832.97,1317.18C1833.14,1316.31 1833.43,1315.47 1833.83,1314.69C1834.77,1312.85 1836.33,1311.34 1838.21,1310.46C1839.01,1310.09 1839.87,1309.83 1840.74,1309.7C1841.17,1309.63 1841.61,1309.6 1842.04,1309.59C1842.16,1309.59 1842.16,1309.59 1842.28,1309.59ZM1842.09,1313.52C1841.32,1313.53 1840.57,1313.7 1839.87,1314.02C1838.84,1314.5 1837.97,1315.31 1837.42,1316.31C1837.17,1316.75 1836.98,1317.23 1836.87,1317.72C1836.72,1318.37 1836.69,1319.05 1836.78,1319.71C1836.86,1320.24 1837.01,1320.76 1837.24,1321.24C1837.51,1321.83 1837.9,1322.38 1838.37,1322.83C1838.85,1323.31 1839.43,1323.69 1840.05,1323.95C1840.72,1324.24 1841.44,1324.38 1842.16,1324.38C1842.89,1324.38 1843.61,1324.24 1844.27,1323.95C1844.9,1323.69 1845.47,1323.31 1845.96,1322.83C1846.42,1322.38 1846.81,1321.83 1847.09,1321.24C1847.32,1320.76 1847.47,1320.24 1847.54,1319.71C1847.63,1319.05 1847.61,1318.37 1847.46,1317.72C1847.34,1317.23 1847.16,1316.75 1846.91,1316.31C1846.35,1315.31 1845.49,1314.5 1844.45,1314.02C1843.76,1313.7 1843,1313.53 1842.23,1313.52C1842.16,1313.52 1842.16,1313.52 1842.09,1313.52Z" style="fill:rgb(255,255,255);fill-rule:nonzero;"/>
        </g>
        <g transform="matrix(0.824062,0,0,0.824062,337.784,259.069)">
            <path d="M1842.28,1309.59C1842.72,1309.6 1843.15,1309.63 1843.59,1309.7C1844.46,1309.83 1845.31,1310.09 1846.12,1310.46C1847.99,1311.34 1849.55,1312.85 1850.5,1314.69C1850.9,1315.47 1851.19,1316.31 1851.35,1317.18C1851.55,1318.19 1851.57,1319.24 1851.43,1320.26C1851.3,1321.21 1851.01,1322.14 1850.6,1323C1850.11,1324.02 1849.43,1324.94 1848.62,1325.72C1847.77,1326.53 1846.78,1327.17 1845.7,1327.61C1844.58,1328.07 1843.37,1328.31 1842.16,1328.31C1840.95,1328.31 1839.75,1328.07 1838.63,1327.61C1837.55,1327.17 1836.55,1326.53 1835.71,1325.72C1834.89,1324.94 1834.22,1324.02 1833.73,1323C1833.31,1322.14 1833.03,1321.21 1832.9,1320.26C1832.75,1319.24 1832.78,1318.19 1832.97,1317.18C1833.14,1316.31 1833.43,1315.47 1833.83,1314.69C1834.77,1312.85 1836.33,1311.34 1838.21,1310.46C1839.01,1310.09 1839.87,1309.83 1840.74,1309.7C1841.17,1309.63 1841.61,1309.6 1842.04,1309.59C1842.16,1309.59 1842.16,1309.59 1842.28,1309.59ZM1842.09,1313.52C1841.32,1313.53 1840.57,1313.7 1839.87,1314.02C1838.84,1314.5 1837.97,1315.31 1837.42,1316.31C1837.17,1316.75 1836.98,1317.23 1836.87,1317.72C1836.72,1318.37 1836.69,1319.05 1836.78,1319.71C1836.86,1320.24 1837.01,1320.76 1837.24,1321.24C1837.51,1321.83 1837.9,1322.38 1838.37,1322.83C1838.85,1323.31 1839.43,1323.69 1840.05,1323.95C1840.72,1324.24 1841.44,1324.38 1842.16,1324.38C1842.89,1324.38 1843.61,1324.24 1844.27,1323.95C1844.9,1323.69 1845.47,1323.31 1845.96,1322.83C1846.42,1322.38 1846.81,1321.83 1847.09,1321.24C1847.32,1320.76 1847.47,1320.24 1847.54,1319.71C1847.63,1319.05 1847.61,1318.37 1847.46,1317.72C1847.34,1317.23 1847.16,1316.75 1846.91,1316.31C1846.35,1315.31 1845.49,1314.5 1844.45,1314.02C1843.76,1313.7 1843,1313.53 1842.23,1313.52C1842.16,1313.52 1842.16,1313.52 1842.09,1313.52Z" style="fill:rgb(255,255,255);fill-rule:nonzero;"/>
        </g>
        <g transform="matrix(0.824062,0,0,0.824062,316.061,238.88)">
            <path d="M1842.28,1309.59C1842.72,1309.6 1843.15,1309.63 1843.59,1309.7C1844.46,1309.83 1845.31,1310.09 1846.12,1310.46C1847.99,1311.34 1849.55,1312.85 1850.5,1314.69C1850.9,1315.47 1851.19,1316.31 1851.35,1317.18C1851.55,1318.19 1851.57,1319.24 1851.43,1320.26C1851.3,1321.21 1851.01,1322.14 1850.6,1323C1850.11,1324.02 1849.43,1324.94 1848.62,1325.72C1847.77,1326.53 1846.78,1327.17 1845.7,1327.61C1844.58,1328.07 1843.37,1328.31 1842.16,1328.31C1840.95,1328.31 1839.75,1328.07 1838.63,1327.61C1837.55,1327.17 1836.55,1326.53 1835.71,1325.72C1834.89,1324.94 1834.22,1324.02 1833.73,1323C1833.31,1322.14 1833.03,1321.21 1832.9,1320.26C1832.75,1319.24 1832.78,1318.19 1832.97,1317.18C1833.14,1316.31 1833.43,1315.47 1833.83,1314.69C1834.77,1312.85 1836.33,1311.34 1838.21,1310.46C1839.01,1310.09 1839.87,1309.83 1840.74,1309.7C1841.17,1309.63 1841.61,1309.6 1842.04,1309.59C1842.16,1309.59 1842.16,1309.59 1842.28,1309.59ZM1842.09,1313.52C1841.32,1313.53 1840.57,1313.7 1839.87,1314.02C1838.84,1314.5 1837.97,1315.31 1837.42,1316.31C1837.17,1316.75 1836.98,1317.23 1836.87,1317.72C1836.72,1318.37 1836.69,1319.05 1836.78,1319.71C1836.86,1320.24 1837.01,1320.76 1837.24,1321.24C1837.51,1321.83 1837.9,1322.38 1838.37,1322.83C1838.85,1323.31 1839.43,1323.69 1840.05,1323.95C1840.72,1324.24 1841.44,1324.38 1842.16,1324.38C1842.89,1324.38 1843.61,1324.24 1844.27,1323.95C1844.9,1323.69 1845.47,1323.31 1845.96,1322.83C1846.42,1322.38 1846.81,1321.83 1847.09,1321.24C1847.32,1320.76 1847.47,1320.24 1847.54,1319.71C1847.63,1319.05 1847.61,1318.37 1847.46,1317.72C1847.34,1317.23 1847.16,1316.75 1846.91,1316.31C1846.35,1315.31 1845.49,1314.5 1844.45,1314.02C1843.76,1313.7 1843,1313.53 1842.23,1313.52C1842.16,1313.52 1842.16,1313.52 1842.09,1313.52Z" style="fill:rgb(255,255,255);fill-rule:nonzero;"/>
        </g>
        <g transform="matrix(0.824062,0,0,0.824062,347.007,228.996)">
            <path d="M1842.28,1309.59C1842.72,1309.6 1843.15,1309.63 1843.59,1309.7C1844.46,1309.83 1845.31,1310.09 1846.12,1310.46C1847.99,1311.34 1849.55,1312.85 1850.5,1314.69C1850.9,1315.47 1851.19,1316.31 1851.35,1317.18C1851.55,1318.19 1851.57,1319.24 1851.43,1320.26C1851.3,1321.21 1851.01,1322.14 1850.6,1323C1850.11,1324.02 1849.43,1324.94 1848.62,1325.72C1847.77,1326.53 1846.78,1327.17 1845.7,1327.61C1844.58,1328.07 1843.37,1328.31 1842.16,1328.31C1840.95,1328.31 1839.75,1328.07 1838.63,1327.61C1837.55,1327.17 1836.55,1326.53 1835.71,1325.72C1834.89,1324.94 1834.22,1324.02 1833.73,1323C1833.31,1322.14 1833.03,1321.21 1832.9,1320.26C1832.75,1319.24 1832.78,1318.19 1832.97,1317.18C1833.14,1316.31 1833.43,1315.47 1833.83,1314.69C1834.77,1312.85 1836.33,1311.34 1838.21,1310.46C1839.01,1310.09 1839.87,1309.83 1840.74,1309.7C1841.17,1309.63 1841.61,1309.6 1842.04,1309.59C1842.16,1309.59 1842.16,1309.59 1842.28,1309.59ZM1842.09,1313.52C1841.32,1313.53 1840.57,1313.7 1839.87,1314.02C1838.84,1314.5 1837.97,1315.31 1837.42,1316.31C1837.17,1316.75 1836.98,1317.23 1836.87,1317.72C1836.72,1318.37 1836.69,1319.05 1836.78,1319.71C1836.86,1320.24 1837.01,1320.76 1837.24,1321.24C1837.51,1321.83 1837.9,1322.38 1838.37,1322.83C1838.85,1323.31 1839.43,1323.69 1840.05,1323.95C1840.72,1324.24 1841.44,1324.38 1842.16,1324.38C1842.89,1324.38 1843.61,1324.24 1844.27,1323.95C1844.9,1323.69 1845.47,1323.31 1845.96,1322.83C1846.42,1322.38 1846.81,1321.83 1847.09,1321.24C1847.32,1320.76 1847.47,1320.24 1847.54,1319.71C1847.63,1319.05 1847.61,1318.37 1847.46,1317.72C1847.34,1317.23 1847.16,1316.75 1846.91,1316.31C1846.35,1315.31 1845.49,1314.5 1844.45,1314.02C1843.76,1313.7 1843,1313.53 1842.23,1313.52C1842.16,1313.52 1842.16,1313.52 1842.09,1313.52Z" style="fill:rgb(255,255,255);fill-rule:nonzero;"/>
        </g>
        <g transform="matrix(1,0,0,1,-200.937,-309.536)">
            <path d="M2033.13,1640.14C2033.23,1640.15 2033.25,1640.15 2033.34,1640.17C2033.48,1640.19 2033.62,1640.24 2033.75,1640.3C2034.26,1640.54 2034.62,1641.06 2034.66,1641.63C2034.67,1641.77 2034.67,1641.91 2034.64,1642.05C2034.62,1642.14 2034.62,1642.16 2034.59,1642.26L2028.88,1659.91C2028.85,1660.01 2028.81,1660.11 2028.76,1660.2C2028.63,1660.42 2028.46,1660.61 2028.26,1660.75C2027.79,1661.07 2027.17,1661.12 2026.65,1660.88C2026.52,1660.81 2026.4,1660.74 2026.29,1660.64C2026.16,1660.53 2026.05,1660.39 2025.95,1660.24C2025.85,1660.06 2025.77,1659.86 2025.74,1659.65C2025.72,1659.47 2025.72,1659.3 2025.75,1659.12C2025.77,1659.03 2025.78,1659.01 2025.8,1658.92L2031.51,1641.26C2031.56,1641.13 2031.62,1641 2031.69,1640.88C2031.89,1640.58 2032.17,1640.35 2032.51,1640.23C2032.64,1640.19 2032.78,1640.16 2032.92,1640.14C2033.03,1640.14 2033.03,1640.14 2033.13,1640.14Z" style="fill:rgb(255,255,255);fill-rule:nonzero;"/>
        </g>
        <g transform="matrix(1,0,0,1,-199.179,-310.334)">
            <path d="M2035.61,1647.82C2035.83,1647.84 2036.04,1647.89 2036.23,1647.98C2036.73,1648.23 2037.08,1648.72 2037.13,1649.27C2037.15,1649.47 2037.13,1649.65 2037.09,1649.84C2036.32,1652.56 2035.43,1655.25 2034.6,1657.95C2034.51,1658.2 2034.38,1658.43 2034.19,1658.62C2034.08,1658.74 2033.94,1658.84 2033.79,1658.91C2033.66,1658.98 2033.53,1659.03 2033.39,1659.06C2032.94,1659.15 2032.47,1659.05 2032.1,1658.78C2031.94,1658.67 2031.81,1658.53 2031.7,1658.37C2031.59,1658.19 2031.5,1657.99 2031.46,1657.78C2031.42,1657.54 2031.43,1657.3 2031.49,1657.07C2032.26,1654.35 2033.15,1651.66 2033.98,1648.96C2034.03,1648.8 2034.1,1648.65 2034.2,1648.51C2034.4,1648.22 2034.7,1648 2035.05,1647.89C2035.18,1647.85 2035.33,1647.83 2035.47,1647.82C2035.54,1647.82 2035.54,1647.82 2035.61,1647.82Z" style="fill:rgb(255,255,255);fill-rule:nonzero;"/>
        </g>
        <g transform="matrix(1,0,0,1,-203.428,-308.448)">
            <path d="M2059.64,1631.6C2059.86,1631.61 2060.06,1631.65 2060.26,1631.74C2060.77,1631.97 2061.13,1632.45 2061.2,1633.01C2061.23,1633.22 2061.21,1633.43 2061.16,1633.64C2060.53,1635.78 2059.86,1637.91 2059.15,1640.02C2059.05,1640.26 2058.92,1640.48 2058.73,1640.66C2058.3,1641.07 2057.64,1641.2 2057.08,1641C2056.92,1640.94 2056.77,1640.86 2056.64,1640.76C2056.48,1640.64 2056.35,1640.5 2056.25,1640.34C2056.14,1640.16 2056.06,1639.95 2056.03,1639.75C2055.99,1639.51 2056.01,1639.28 2056.06,1639.05C2056.69,1636.91 2057.36,1634.78 2058.07,1632.67C2058.13,1632.53 2058.19,1632.4 2058.28,1632.28C2058.49,1631.98 2058.8,1631.76 2059.14,1631.66C2059.26,1631.62 2059.39,1631.61 2059.52,1631.6C2059.58,1631.6 2059.58,1631.6 2059.64,1631.6Z" style="fill:rgb(255,255,255);fill-rule:nonzero;"/>
        </g>
        <g transform="matrix(1,0,0,1,-200.937,-309.536)">
            <path d="M2039.86,1637.86C2039.98,1637.87 2040.1,1637.89 2040.21,1637.92C2040.38,1637.96 2040.55,1638.04 2040.7,1638.14C2040.77,1638.19 2040.84,1638.25 2040.9,1638.31C2044.96,1642.38 2048.79,1646.67 2052.74,1650.85C2052.79,1650.91 2052.8,1650.92 2052.85,1650.99C2052.96,1651.13 2053.04,1651.29 2053.1,1651.46C2053.16,1651.66 2053.19,1651.87 2053.18,1652.07C2053.16,1652.22 2053.13,1652.37 2053.08,1652.51C2052.89,1653.05 2052.41,1653.45 2051.85,1653.55C2051.67,1653.58 2051.49,1653.59 2051.31,1653.56C2051.08,1653.52 2050.85,1653.43 2050.66,1653.3C2050.58,1653.25 2050.51,1653.19 2050.45,1653.13C2046.39,1649.06 2042.56,1644.77 2038.61,1640.59C2038.56,1640.53 2038.55,1640.52 2038.5,1640.45C2038.39,1640.31 2038.31,1640.15 2038.25,1639.98C2038.21,1639.84 2038.18,1639.69 2038.17,1639.54C2038.15,1638.97 2038.44,1638.42 2038.93,1638.11C2039.08,1638.02 2039.25,1637.95 2039.42,1637.9C2039.51,1637.88 2039.59,1637.87 2039.68,1637.87C2039.77,1637.86 2039.77,1637.86 2039.86,1637.86Z" style="fill:rgb(255,255,255);fill-rule:nonzero;"/>
        </g>
        <g transform="matrix(1,0,0,1,-200.937,-309.536)">
            <path d="M2064.54,1630.08C2064.63,1630.09 2064.66,1630.09 2064.75,1630.1C2064.89,1630.13 2065.03,1630.17 2065.16,1630.23C2065.68,1630.46 2066.04,1630.97 2066.1,1631.54C2066.11,1631.68 2066.11,1631.82 2066.08,1631.96C2066.07,1632.06 2066.06,1632.08 2066.03,1632.17L2060.65,1649.9C2060.62,1650.01 2060.58,1650.1 2060.53,1650.2C2060.42,1650.42 2060.25,1650.61 2060.05,1650.75C2059.58,1651.08 2058.96,1651.14 2058.44,1650.91C2058.31,1650.85 2058.19,1650.78 2058.08,1650.68C2057.95,1650.57 2057.83,1650.44 2057.73,1650.29C2057.62,1650.11 2057.55,1649.91 2057.51,1649.7C2057.48,1649.53 2057.48,1649.35 2057.51,1649.17C2057.53,1649.08 2057.53,1649.06 2057.56,1648.97L2062.94,1631.23C2062.99,1631.09 2063.04,1630.97 2063.11,1630.85C2063.3,1630.54 2063.59,1630.31 2063.92,1630.18C2064.05,1630.13 2064.19,1630.11 2064.33,1630.09C2064.43,1630.08 2064.43,1630.08 2064.54,1630.08Z" style="fill:rgb(255,255,255);fill-rule:nonzero;"/>
        </g>
    </g>
</svg>
